<?xml version="1.0" encoding="iso-8859-1"?>
<!-- Uploaded to: SVG Repo, www.svgrepo.com, Generator: SVG Repo Mixer Tools -->
<svg version="1.1" id="Layer_1" xmlns="http://www.w3.org/2000/svg" xmlns:xlink="http://www.w3.org/1999/xlink" 
	 viewBox="0 0 512 512" xml:space="preserve">
<path style="fill:#E35F46;" d="M366.988,58.384V40.401c0-7.144-5.79-12.935-12.935-12.935h-25.866
	c-7.144,0-12.935,5.79-12.935,12.935v17.984H366.988z"/>
<path style="fill:#D8422E;" d="M344.035,55.86V40.401c0-7.144,5.792-12.935,12.935-12.935h-22.291
	c-7.144,0-12.935,5.79-12.935,12.935V55.86v2.524v15.459h22.291V58.384V55.86z"/>
<path style="fill:#CCC3A8;" d="M358.022,307.178h6.083h1.558h7.45h3.616h10.301h1.558h48.493c7.144,0,12.936-5.79,12.936-12.935
	v-4.469c0-7.143-5.792-12.935-12.936-12.935H74.917c-7.144,0-12.935,5.792-12.935,12.935v4.469c0,7.144,5.79,12.935,12.935,12.935
	h47.043h1.558h10.304h3.615h7.453h1.558h10.392h36.96h1.558h2.057h1.558h7.453h2.851h7.45h0.091h1.467h0.091h1.968h1.558h6.777
	h3.615h7.453h1.558h27.95h1.558h7.45h3.616h6.777h1.558h1.966h0.091h1.467h0.091h7.453h2.851h7.45h1.558h2.059h1.558h14.206"/>
<path style="fill:#C9B585;" d="M89.846,294.244v-4.469c0-7.143,5.79-12.935,12.935-12.935H81.409
	c-7.144,0-12.935,5.792-12.935,12.935v4.469c0,7.144,5.79,12.935,12.935,12.935h21.37C95.636,307.178,89.846,301.387,89.846,294.244
	z"/>
<path style="fill:#36A1CB;" d="M459.152,72.134c-14.225-8.722-30.958-13.75-48.865-13.75H101.713
	c-51.707,0-93.629,41.924-93.629,93.629c0,51.708,41.923,93.631,93.629,93.631h308.572c51.707,0,93.629-41.925,93.629-93.631
	c0-24.228-9.205-46.31-24.308-62.935"/>
<path style="fill:#3691C9;" d="M36.134,152.013c0-43.314,27.871-80.12,66.656-93.47c-49.188,2.807-88.214,43.581-88.214,93.47
	s39.026,90.665,88.214,93.472C64.006,232.135,36.134,195.33,36.134,152.013z"/>
<g>
	<path style="fill:#7C7A75;" d="M110.799,350.834v-43.656H80.461v82.647v81.2c0,7.461,6.048,13.509,13.509,13.509h3.32
		c7.461,0,13.509-6.048,13.509-13.509v-83.356v-9.888"/>
	<path style="fill:#7C7A75;" d="M399.748,307.178v82.647v81.2c0,7.461,6.048,13.509,13.509,13.509h3.32
		c7.461,0,13.509-6.048,13.509-13.509v-81.2v-82.647H399.748z"/>
	<rect x="81.187" y="245.641" style="fill:#7C7A75;" width="349.626" height="31.194"/>
</g>
<g>
	<path style="fill:#231F20;" d="M512,152.013c0-25.342-9.379-49.624-26.407-68.371c-3.003-3.304-8.115-3.548-11.42-0.549
		c-3.305,3.002-3.551,8.114-0.549,11.42c14.322,15.766,22.208,36.186,22.208,57.499c0,47.171-38.376,85.547-85.545,85.547H219.754
		V66.468h95.498h51.736h43.299c15.805,0,31.241,4.342,44.64,12.556c3.804,2.333,8.783,1.141,11.116-2.667
		c2.334-3.806,1.14-8.783-2.667-11.116C447.434,55.466,429.075,50.3,410.286,50.3h-35.215v-9.899
		c0-11.59-9.429-21.019-21.019-21.019h-25.865c-11.59,0-21.019,9.429-21.019,21.019V50.3h-87.414v-9.899
		c0-11.59-9.429-21.019-21.019-21.019h-75.001c-11.59,0-21.019,9.429-21.019,21.019V50.3h-1.001C45.628,50.3,0,95.928,0,152.013
		c0,46.155,30.903,85.222,73.102,97.613v19.221c-10.741,0.925-19.204,9.95-19.204,20.927v4.469c0,10.728,8.084,19.589,18.478,20.85
		v155.931c0,11.906,9.687,21.593,21.593,21.593h3.32c11.906,0,21.593-9.687,21.593-21.593v-93.244c0-4.466-3.618-8.084-8.084-8.084
		s-8.084,3.618-8.084,8.084v93.243c0,2.991-2.434,5.425-5.425,5.425h-3.32c-2.991,0-5.425-2.434-5.425-5.425V315.262h14.17v35.573
		c0,4.466,3.618,8.084,8.084,8.084s8.084-3.618,8.084-8.084v-35.573h212.075c4.466,0,8.084-3.618,8.084-8.084
		s-3.618-8.084-8.084-8.084H110.799H80.461h-5.544c-2.674,0-4.851-2.176-4.851-4.851v-4.469c0-2.674,2.176-4.851,4.851-4.851h6.269
		h29.613h100.87h219.145h6.268c2.674,0,4.852,2.176,4.852,4.851v4.469c0,2.674-2.177,4.851-4.852,4.851h-6.994h-30.34h-41.726
		c-4.466,0-8.084,3.618-8.084,8.084s3.618,8.084,8.084,8.084h33.642v155.762c0,11.906,9.687,21.593,21.593,21.593h3.32
		c11.906,0,21.593-9.687,21.593-21.593V315.207c11.083-0.572,19.93-9.742,19.93-20.964v-4.469c0-10.977-8.463-20.001-19.204-20.927
		v-19.221C481.097,237.236,512,198.169,512,152.013z M323.336,40.401c0-2.674,2.176-4.851,4.851-4.851h25.866
		c2.674,0,4.851,2.176,4.851,4.851V50.3h-35.567V40.401z M422.003,471.024c0,2.991-2.434,5.425-5.425,5.425h-3.32
		c-2.991,0-5.425-2.434-5.425-5.425V315.262h14.17L422.003,471.024L422.003,471.024z M203.585,162.742h-84.702v-18.324h84.702
		V162.742z M118.883,178.91h84.702v19.402h-84.702V178.91z M203.585,128.249h-84.702v-22.636h84.702V128.249z M118.883,214.481
		h84.702v23.08h-84.702V214.481z M203.585,89.445h-84.702V66.468h84.702V89.445z M118.883,40.401c0-2.674,2.176-4.851,4.851-4.851
		h75.001c2.674,0,4.851,2.176,4.851,4.851V50.3h-84.702V40.401z M16.168,152.013c0-47.17,38.376-85.545,85.545-85.545h1.001v171.093
		h-1.001C54.545,237.562,16.168,199.184,16.168,152.013z M89.27,253.73h12.443h1.001v15.025H89.27V253.73z M118.883,268.755V253.73
		h84.702v15.025H118.883z M422.73,253.73v15.025H219.754V253.73h190.533H422.73z"/>
	<path style="fill:#231F20;" d="M256,105.613h59.252c4.466,0,8.084-3.618,8.084-8.084s-3.618-8.084-8.084-8.084H256
		c-4.466,0-8.084,3.618-8.084,8.084S251.534,105.613,256,105.613z"/>
	<path style="fill:#231F20;" d="M366.988,116.756H256c-4.466,0-8.084,3.618-8.084,8.084c0,4.466,3.618,8.084,8.084,8.084h110.988
		c4.466,0,8.084-3.618,8.084-8.084C375.072,120.375,371.452,116.756,366.988,116.756z"/>
	<path style="fill:#231F20;" d="M366.988,144.068H256c-4.466,0-8.084,3.618-8.084,8.084c0,4.466,3.618,8.084,8.084,8.084h110.988
		c4.466,0,8.084-3.618,8.084-8.084C375.072,147.687,371.452,144.068,366.988,144.068z"/>
</g>
</svg>